
        <svg xmlns="http://www.w3.org/2000/svg" xmlns:xlink="http://www.w3.org/1999/xlink" version="1.1" width="3300" 
        height="2567.9800505632816" viewBox="0 0 3300 2567.9800505632816">
			
			<g transform="scale(15) translate(10, 10)">
				<defs id="SvgjsDefs2689"></defs><g id="SvgjsG2690" featureKey="symbolFeature-0" transform="matrix(1.0869565217391304,0,0,1.0869565217391304,45.65217417219411,-2.391304399656213)" fill="#8235ff"><path xmlns="http://www.w3.org/2000/svg" d="M60.9,85.9v2.8c0,2.2-1.6,4.1-3.8,4.4l-0.7,2.5c-0.4,1.4-1.6,2.3-3,2.3h-6.8c-1.4,0-2.7-1-3-2.3L42.9,93  c-2.1-0.3-3.8-2.2-3.8-4.4v-2.8c0-1.5,1.2-2.7,2.7-2.7h16.4C59.7,83.2,60.9,84.4,60.9,85.9z M50,16.9c1.5,0,2.7-1.2,2.7-2.7V4.9  c0-1.5-1.2-2.7-2.7-2.7s-2.7,1.2-2.7,2.7v9.3C47.3,15.7,48.5,16.9,50,16.9z M18.7,48.2c0-1.5-1.2-2.7-2.7-2.7H6.7  c-1.5,0-2.7,1.2-2.7,2.7s1.2,2.7,2.7,2.7H16C17.5,50.8,18.7,49.6,18.7,48.2z M93.3,45.5H84c-1.5,0-2.7,1.2-2.7,2.7  c0,1.5,1.2,2.7,2.7,2.7h9.3c1.5,0,2.7-1.2,2.7-2.7S94.7,45.5,93.3,45.5z M24.1,70.3l-6.6,6.6c-1,1-1,2.7,0,3.8  c0.5,0.5,1.2,0.8,1.9,0.8s1.4-0.3,1.9-0.8l6.6-6.6c1-1,1-2.7,0-3.8C26.8,69.3,25.2,69.3,24.1,70.3z M74,26.8c0.7,0,1.4-0.3,1.9-0.8  l6.6-6.6c1-1,1-2.7,0-3.8c-1-1-2.7-1-3.8,0l-6.6,6.6c-1,1-1,2.7,0,3.8C72.6,26.6,73.3,26.8,74,26.8z M24.1,26.1  c0.5,0.5,1.2,0.8,1.9,0.8s1.4-0.3,1.9-0.8c1-1,1-2.7,0-3.8l-6.6-6.6c-1-1-2.7-1-3.8,0c-1,1-1,2.7,0,3.8L24.1,26.1z M75.9,70.3  c-1-1-2.7-1-3.8,0c-1,1-1,2.7,0,3.8l6.6,6.6c0.5,0.5,1.2,0.8,1.9,0.8c0.7,0,1.4-0.3,1.9-0.8c1-1,1-2.7,0-3.8L75.9,70.3z M49.8,24.6  c-13.1,0.1-23.5,10.7-23.4,23.8c0.1,6.2,2.6,11.9,6.6,16.1c3.1,3.2,5.1,7.4,5.8,11.8c0.3,1.9,1.9,3.3,3.8,3.3h14.6  c1.9,0,3.6-1.4,3.9-3.3c0.7-4.4,2.7-8.5,5.8-11.7c4.1-4.2,6.6-10,6.6-16.4C73.6,35.1,62.9,24.5,49.8,24.6z M50,65.3  c-9.5,0-17.2-7.7-17.2-17.2c0-9.5,7.7-17.2,17.2-17.2s17.2,7.7,17.2,17.2C67.2,57.7,59.5,65.3,50,65.3z M52.3,57.8  c1.3-0.3,2.4-1,3.2-2.1c2.3-2.8,1.4-6.9-1.9-8.8c-1-0.6-2.1-1-3.2-1.5c-0.6-0.3-1.2-0.6-1.8-1c-1-0.8-0.8-2.2,0.4-2.7  c0.3-0.2,0.7-0.2,1.1-0.2c1.4-0.1,2.8,0.2,4.1,0.8c0.6,0.3,0.9,0.2,1.1-0.5c0.2-0.7,0.4-1.4,0.6-2.1c0.1-0.5,0-0.8-0.5-1  c-0.8-0.4-1.7-0.6-2.6-0.8c-1.2-0.2-1.2-0.2-1.2-1.4c0-1.7,0-1.7-1.7-1.6c-0.2,0-0.5,0-0.7,0c-0.8,0-0.9,0.2-0.9,0.9  c0,0.3,0,0.7,0,1c0,1,0,1-1,1.4c-2.4,0.9-3.9,2.5-4,5.1c-0.1,2.3,1.1,3.9,3,5c1.2,0.7,2.5,1.1,3.7,1.7c0.5,0.2,0.9,0.5,1.3,0.8  c1.2,1,1,2.6-0.4,3.2c-0.8,0.3-1.6,0.4-2.4,0.3c-1.3-0.2-2.5-0.5-3.6-1.1c-0.7-0.3-0.9-0.3-1.1,0.5c-0.2,0.6-0.4,1.3-0.5,1.9  c-0.2,0.8-0.1,1.1,0.7,1.4c1,0.5,2.1,0.8,3.3,0.9c0.9,0.1,0.9,0.2,0.9,1.1c0,0.4,0,0.8,0,1.2c0,0.5,0.3,0.8,0.8,0.8  c0.6,0,1.2,0,1.8,0c0.5,0,0.8-0.3,0.8-0.8c0-0.6,0-1.1,0-1.7C51.5,58.2,51.8,57.9,52.3,57.8z"></path></g><g id="SvgjsG2691" featureKey="nameFeature-0" transform="matrix(0.8312550688218212,0,0,0.8312550688218212,0.06650041021267869,117.44970996255445)" fill="#5300a1"><path d="M11.32 23.96 c0 -0.93332 0.32668 -1.7266 0.98 -2.38 s1.4333 -0.98 2.34 -0.98 c0.93332 0 1.7266 0.32668 2.38 0.98 s0.98 1.4466 0.98 2.38 s-0.32668 1.72 -0.98 2.36 s-1.4466 0.96 -2.38 0.96 c-0.90668 0 -1.6867 -0.32 -2.34 -0.96 s-0.98 -1.4267 -0.98 -2.36 z M6.96 10.04 l0 14.12 l0 5.36 l0.02 4.84 l0.02 3.72 l0 1.92 l-7 0 l0 -22.32 c0 -1.0133 -0.0066796 -1.9866 -0.02 -2.92 s-0.02 -1.7466 -0.02 -2.44 c-0.02668 -0.82668 -0.04 -1.5867 -0.04 -2.28 l7.04 0 z M21.76 10.120000000000001 l0.3 -0.019961 l0.82 -0.04 l1.14 -0.02 l1.3 0 l3.56 0 c-0.02668 5.2 -0.04 9.9068 -0.04 14.12 c0 1.8133 -0.0066796 3.6 -0.02 5.36 s-0.02 3.3733 -0.02 4.84 l0 3.72 l0 1.92 l-7 0 l0 -22 c0 -1.0133 -0.0066796 -1.9933 -0.02 -2.94 s-0.02 -1.7934 -0.02 -2.54 l0 -2.4 z M48.36 19 c1.36 0 2.6467 0.27324 3.86 0.81992 s2.2733 1.2934 3.18 2.24 s1.62 2.06 2.14 3.34 s0.78 2.6533 0.78 4.12 c0 1.44 -0.26 2.7933 -0.78 4.06 s-1.2333 2.3734 -2.14 3.32 s-1.9667 1.6934 -3.18 2.24 s-2.5 0.82 -3.86 0.82 l-0.64 0 c0.48 -0.42668 0.91332 -0.98668 1.3 -1.68 s0.72 -1.4933 1 -2.4 s0.5 -1.9 0.66 -2.98 s0.24 -2.2067 0.24 -3.38 s-0.08 -2.3066 -0.24 -3.4 s-0.38 -2.0933 -0.66 -3 s-0.61332 -1.7134 -1 -2.42 s-0.82 -1.2734 -1.3 -1.7 l0.64 0 z M42.64 39.959924 c-1.36 0 -2.6467 -0.27324 -3.86 -0.81992 s-2.2733 -1.2934 -3.18 -2.24 s-1.62 -2.0534 -2.14 -3.32 s-0.78 -2.62 -0.78 -4.06 c0 -1.4667 0.26 -2.84 0.78 -4.12 s1.2333 -2.3933 2.14 -3.34 s1.9667 -1.6934 3.18 -2.24 s2.5 -0.82 3.86 -0.82 l0.64 0 c-0.48 0.42668 -0.91332 0.99336 -1.3 1.7 s-0.72 1.5134 -1 2.42 s-0.5 1.9067 -0.66 3 s-0.24 2.2266 -0.24 3.4 s0.08 2.3 0.24 3.38 s0.38 2.0733 0.66 2.98 s0.61332 1.7067 1 2.4 s0.82 1.2533 1.3 1.68 l-0.64 0 z M60.68 13.920000000000002 c1.2267 -0.53332 2.3732 -1.0867 3.4399 -1.66 s1.9867 -1.1 2.76 -1.58 c0.90668 -0.53332 1.7334 -1.0666 2.48 -1.6 l0 30.92 l-7 0 l0 -21.16 c0 -1.0133 -0.08668 -1.84 -0.26 -2.48 s-0.36664 -1.1467 -0.57996 -1.52 c-0.26668 -0.42668 -0.54668 -0.73336 -0.84 -0.92004 z M86.2 24.4 c0.66668 0.34668 1.3334 0.77332 2 1.28 c0.56 0.45332 1.1533 1.02 1.78 1.7 s1.18 1.5 1.66 2.46 l0 -5.44 l0 -6 c-0.50668 1.0667 -1.0734 1.98 -1.7 2.74 s-1.22 1.38 -1.78 1.86 c-0.66668 0.56 -1.32 1.0267 -1.96 1.4 z M88.68 10 l8.52 -0.000039062 l0 10.8 c-0.64 -1.4933 -1.3867 -2.92 -2.24 -4.28 c-0.74668 -1.1733 -1.64 -2.3666 -2.68 -3.58 s-2.24 -2.1933 -3.6 -2.94 z M75.36 10.04 l0 29.96 l7.04 0 l0 -29.96 l-7.04 0 z M109.08 11.68 c0 0.53332 -0.1 1.0266 -0.3 1.48 s-0.47332 0.85332 -0.82 1.2 s-0.75336 0.62 -1.22 0.82 s-0.95336 0.3 -1.46 0.3 c-0.53332 0 -1.0333 -0.1 -1.5 -0.3 s-0.86668 -0.47332 -1.2 -0.82 s-0.6 -0.74668 -0.8 -1.2 s-0.3 -0.94664 -0.3 -1.48 c0 -0.50668 0.1 -0.99336 0.3 -1.46 s0.46668 -0.87336 0.8 -1.22 s0.73332 -0.62 1.2 -0.82 s0.96668 -0.3 1.5 -0.3 c0.50668 0 0.99336 0.1 1.46 0.3 s0.87336 0.47332 1.22 0.82 s0.62 0.75336 0.82 1.22 s0.3 0.95336 0.3 1.46 z M99.84 22.92 c0.29332 0.18668 0.57344 0.4934 0.84012 0.92008 c0.21332 0.37332 0.40664 0.88 0.57996 1.52 s0.26 1.4667 0.26 2.48 l0 12.16 l7 0 l0 -21.92 c-0.74668 0.53332 -1.5734 1.0666 -2.48 1.6 c-0.77332 0.48 -1.6933 1.0067 -2.76 1.58 s-2.2134 1.1266 -3.44 1.66 z M114.92 21.52 c1.0133 -0.13332 1.9667 -0.34 2.86 -0.62 s1.6866 -0.56668 2.38 -0.86 c0.77332 -0.32 1.4933 -0.68 2.16 -1.08 l0 21 l-7.4 0 l0 -18.44 z M129 19 c0.93332 0.24 1.82 0.66 2.66 1.26 s1.58 1.3267 2.22 2.18 s1.1467 1.8133 1.52 2.88 s0.56 2.1867 0.56 3.36 l0 11.28 l-7.32 0 l0 -11.84 l0 -9.2 c0.05332 0.02668 0.11332 0.04 0.18 0.04 s0.12668 0.01332 0.18 0.04 z  M164.60000000000002 40 l-6.96 0 l0 -29.96 l6.96 0 l0 29.96 z M170.8 40 l7.6 0 l0 -9.6 c-0.69332 1.36 -1.44 2.6533 -2.24 3.88 c-0.69332 1.04 -1.5 2.1 -2.42 3.18 s-1.9 1.9267 -2.94 2.54 z M190.88000000000002 11.68 c0 0.53332 -0.1 1.0266 -0.3 1.48 s-0.47332 0.85332 -0.82 1.2 s-0.75336 0.62 -1.22 0.82 s-0.95336 0.3 -1.46 0.3 c-0.53332 0 -1.0333 -0.1 -1.5 -0.3 s-0.86668 -0.47332 -1.2 -0.82 s-0.6 -0.74668 -0.8 -1.2 s-0.3 -0.94664 -0.3 -1.48 c0 -0.50668 0.1 -0.99336 0.3 -1.46 s0.46668 -0.87336 0.8 -1.22 s0.73332 -0.62 1.2 -0.82 s0.96668 -0.3 1.5 -0.3 c0.50668 0 0.99336 0.1 1.46 0.3 s0.87336 0.47332 1.22 0.82 s0.62 0.75336 0.82 1.22 s0.3 0.95336 0.3 1.46 z M181.64000000000004 22.92 c0.29332 0.18668 0.57344 0.4934 0.84012 0.92008 c0.21332 0.37332 0.40664 0.88 0.57996 1.52 s0.26 1.4667 0.26 2.48 l0 12.16 l7 0 l0 -21.92 c-0.74668 0.53332 -1.5734 1.0666 -2.48 1.6 c-0.77332 0.48 -1.6933 1.0067 -2.76 1.58 s-2.2134 1.1266 -3.44 1.66 z M214.76000000000002 18.8 c-0.4 0.85332 -1.0334 1.4266 -1.9 1.7199 s-1.7134 0.25332 -2.54 -0.12 c-0.85332 -0.4 -1.4333 -1.0333 -1.74 -1.9 s-0.26 -1.7267 0.14 -2.58 c0.29332 -0.61332 0.43332 -1.16 0.42 -1.64 s-0.08664 -0.88 -0.21996 -1.2 c-0.13332 -0.37332 -0.34664 -0.70664 -0.63996 -0.99996 c0.56 0 1.1333 0.06668 1.72 0.2 c0.50668 0.13332 1.06 0.33332 1.66 0.6 s1.1933 0.65336 1.78 1.16 c1.7067 1.4933 2.1467 3.08 1.32 4.76 z M197.159960938 20.4 c0 -0.8 0.09332 -1.5267 0.28 -2.18 s0.44 -1.24 0.76 -1.76 s0.68 -0.98668 1.08 -1.4 s0.81332 -0.78 1.24 -1.1 c0.98668 -0.72 2.1067 -1.28 3.36 -1.68 l0 27.88 l-6.72 0 l0 -19.76 z M206.32000000000002 28.240000000000002 c0.61332 -0.29332 1.2667 -0.68 1.96 -1.16 c0.56 -0.4 1.1867 -0.91332 1.88 -1.54 s1.3466 -1.4067 1.96 -2.34 l0 5.04 l0 5.04 c-0.66668 -0.93332 -1.34 -1.72 -2.02 -2.36 s-1.3 -1.16 -1.86 -1.56 c-0.66668 -0.48 -1.3067 -0.85332 -1.92 -1.12 z M234.88000000000005 37.56 c0.93332 0 1.7733 -0.09332 2.52 -0.28 c-1.0933 1.0133 -2.3666 1.82 -3.82 2.42 s-3.02 0.9 -4.7 0.9 c-1.6533 0 -3.2066 -0.28668 -4.66 -0.86 s-2.72 -1.36 -3.8 -2.36 s-1.9333 -2.1733 -2.56 -3.52 s-0.94 -2.78 -0.94 -4.3 c0 -1.4667 0.26668 -2.84 0.8 -4.12 s1.26 -2.4067 2.18 -3.38 s2.0067 -1.76 3.26 -2.36 s2.5866 -0.94 4 -1.02 c-0.98668 1.12 -1.7067 2.3733 -2.16 3.76 s-0.68 2.9467 -0.68 4.68 c0 1.5467 0.27332 2.96 0.82 4.24 s1.3 2.38 2.26 3.3 s2.08 1.6333 3.36 2.14 s2.6533 0.76 4.12 0.76 z M232.84000000000003 30.04 c0.08 -0.42668 0.14672 -0.85332 0.20004 -1.28 s0.08 -0.86668 0.08 -1.32 c0 -1.7867 -0.22668 -3.4067 -0.68 -4.86 s-1.1733 -2.7533 -2.16 -3.9 c1.4133 0.08 2.7466 0.43332 4 1.06 s2.34 1.4467 3.26 2.46 s1.6467 2.18 2.18 3.5 s0.8 2.74 0.8 4.26 l0 0.08 l-7.68 0 z"></path></g>
			</g>
		</svg>
	